HIERARCHY
ROOT Hips
{
    OFFSET   0.000000   0.000000   0.000000
    CHANNELS 6 Xposition Yposition Zposition Zrotation Xrotation Yrotation
    JOINT Chest
    {
        OFFSET   0.000000   8.007230   0.000000
        CHANNELS 3 Zrotation Xrotation Yrotation
        JOINT Chest2
        {
            OFFSET   0.000000  22.077100   0.000000
            CHANNELS 3 Zrotation Xrotation Yrotation
            JOINT Neck
            {
                OFFSET   0.000000  23.254800  -0.000021
                CHANNELS 3 Zrotation Xrotation Yrotation
                JOINT Head
                {
                    OFFSET   0.000000  14.370000   1.956610
                    CHANNELS 3 Zrotation Xrotation Yrotation
                    End Site
                    {
                        OFFSET   0.000000  19.566000   0.000000
                    }
                }
            }
            JOINT LeftCollar
            {
                OFFSET   3.911900  19.017000  -0.467063
                CHANNELS 3 Zrotation Xrotation Yrotation
                JOINT LeftShoulder
                {
                    OFFSET  10.383700   0.000000   0.000000
                    CHANNELS 3 Zrotation Xrotation Yrotation
                    JOINT LeftElbow
                    {
                        OFFSET  26.662100   0.001529   0.000325
                        CHANNELS 3 Zrotation Xrotation Yrotation
                        JOINT LeftWrist
                        {
                            OFFSET  28.869000  -0.000011  -0.000096
                            CHANNELS 3 Zrotation Xrotation Yrotation
                            JOINT LeftFinger0
                            {
                                OFFSET   2.044650  -2.323460   3.252850
                                CHANNELS 3 Zrotation Xrotation Yrotation
                                JOINT LeftFinger01
                                {
                                    OFFSET   3.088130   0.000000   0.000000
                                    CHANNELS 3 Zrotation Xrotation Yrotation
                                    JOINT LeftFinger02
                                    {
                                        OFFSET   2.639460   0.000000   0.000000
                                        CHANNELS 3 Zrotation Xrotation Yrotation
                                        End Site
                                        {
                                            OFFSET   2.582190   0.000000   0.000000
                                        }
                                    }
                                }
                            }
                            JOINT LeftFinger1
                            {
                                OFFSET   8.364480   0.000000   3.252850
                                CHANNELS 3 Zrotation Xrotation Yrotation
                                JOINT LeftFinger11
                                {
                                    OFFSET   4.646930   0.000000   0.000000
                                    CHANNELS 3 Zrotation Xrotation Yrotation
                                    JOINT LeftFinger12
                                    {
                                        OFFSET   2.323460   0.000000   0.000000
                                        CHANNELS 3 Zrotation Xrotation Yrotation
                                        End Site
                                        {
                                            OFFSET   2.273050   0.000000   0.000000
                                        }
                                    }
                                }
                            }
                            JOINT LeftFinger2
                            {
                                OFFSET   8.364480   0.000016   1.078090
                                CHANNELS 3 Zrotation Xrotation Yrotation
                                JOINT LeftFinger21
                                {
                                    OFFSET   5.111620   0.000000   0.000000
                                    CHANNELS 3 Zrotation Xrotation Yrotation
                                    JOINT LeftFinger22
                                    {
                                        OFFSET   2.788160   0.000017   0.000000
                                        CHANNELS 3 Zrotation Xrotation Yrotation
                                        End Site
                                        {
                                            OFFSET   2.727660   0.000000   0.000000
                                        }
                                    }
                                }
                            }
                            JOINT LeftFinger3
                            {
                                OFFSET   7.899780   0.000015  -1.078090
                                CHANNELS 3 Zrotation Xrotation Yrotation
                                JOINT LeftFinger31
                                {
                                    OFFSET   4.646920   0.000000   0.000000
                                    CHANNELS 3 Zrotation Xrotation Yrotation
                                    JOINT LeftFinger32
                                    {
                                        OFFSET   2.323470   0.000000   0.000000
                                        CHANNELS 3 Zrotation Xrotation Yrotation
                                        End Site
                                        {
                                            OFFSET   2.273050   0.000000   0.000000
                                        }
                                    }
                                }
                            }
                            JOINT LeftFinger4
                            {
                                OFFSET   7.435090   0.000000  -3.252850
                                CHANNELS 3 Zrotation Xrotation Yrotation
                                JOINT LeftFinger41
                                {
                                    OFFSET   3.717550   0.000000   0.000000
                                    CHANNELS 3 Zrotation Xrotation Yrotation
                                    JOINT LeftFinger42
                                    {
                                        OFFSET   1.858760   0.000000   0.000000
                                        CHANNELS 3 Zrotation Xrotation Yrotation
                                        End Site
                                        {
                                            OFFSET   1.818440   0.000000   0.000000
                                        }
                                    }
                                }
                            }
                        }
                    }
                }
            }
            JOINT RightCollar
            {
                OFFSET  -3.911900  19.017000  -0.467062
                CHANNELS 3 Zrotation Xrotation Yrotation
                JOINT RightShoulder
                {
                    OFFSET -10.383700   0.000015   0.000000
                    CHANNELS 3 Zrotation Xrotation Yrotation
                    JOINT RightElbow
                    {
                        OFFSET -26.662100   0.001341   0.000385
                        CHANNELS 3 Zrotation Xrotation Yrotation
                        JOINT RightWrist
                        {
                            OFFSET -28.869000   0.000025  -0.000080
                            CHANNELS 3 Zrotation Xrotation Yrotation
                            JOINT RightFinger0
                            {
                                OFFSET  -2.044650  -2.323490   3.252850
                                CHANNELS 3 Zrotation Xrotation Yrotation
                                JOINT RightFinger01
                                {
                                    OFFSET  -3.088130   0.000000   0.000000
                                    CHANNELS 3 Zrotation Xrotation Yrotation
                                    JOINT RightFinger02
                                    {
                                        OFFSET  -2.639460   0.000000   0.000000
                                        CHANNELS 3 Zrotation Xrotation Yrotation
                                        End Site
                                        {
                                            OFFSET  -2.582190   0.000000   0.000000
                                        }
                                    }
                                }
                            }
                            JOINT RightFinger1
                            {
                                OFFSET  -8.364480   0.000000   3.252850
                                CHANNELS 3 Zrotation Xrotation Yrotation
                                JOINT RightFinger11
                                {
                                    OFFSET  -4.646930   0.000000   0.000000
                                    CHANNELS 3 Zrotation Xrotation Yrotation
                                    JOINT RightFinger12
                                    {
                                        OFFSET  -2.323470   0.000000   0.000000
                                        CHANNELS 3 Zrotation Xrotation Yrotation
                                        End Site
                                        {
                                            OFFSET  -2.273050   0.000000   0.000000
                                        }
                                    }
                                }
                            }
                            JOINT RightFinger2
                            {
                                OFFSET  -8.364480   0.000000   1.078090
                                CHANNELS 3 Zrotation Xrotation Yrotation
                                JOINT RightFinger21
                                {
                                    OFFSET  -5.111610   0.000000   0.000000
                                    CHANNELS 3 Zrotation Xrotation Yrotation
                                    JOINT RightFinger22
                                    {
                                        OFFSET  -2.788160   0.000000   0.000000
                                        CHANNELS 3 Zrotation Xrotation Yrotation
                                        End Site
                                        {
                                            OFFSET  -2.727660   0.000000   0.000000
                                        }
                                    }
                                }
                            }
                            JOINT RightFinger3
                            {
                                OFFSET  -7.899780   0.000000  -1.078090
                                CHANNELS 3 Zrotation Xrotation Yrotation
                                JOINT RightFinger31
                                {
                                    OFFSET  -4.646920   0.000000   0.000000
                                    CHANNELS 3 Zrotation Xrotation Yrotation
                                    JOINT RightFinger32
                                    {
                                        OFFSET  -2.323470   0.000000   0.000000
                                        CHANNELS 3 Zrotation Xrotation Yrotation
                                        End Site
                                        {
                                            OFFSET  -2.273050   0.000000   0.000000
                                        }
                                    }
                                }
                            }
                            JOINT RightFinger4
                            {
                                OFFSET  -7.435090   0.000000  -3.252850
                                CHANNELS 3 Zrotation Xrotation Yrotation
                                JOINT RightFinger41
                                {
                                    OFFSET  -3.717550   0.000000   0.000000
                                    CHANNELS 3 Zrotation Xrotation Yrotation
                                    JOINT RightFinger42
                                    {
                                        OFFSET  -1.858770   0.000000   0.000000
                                        CHANNELS 3 Zrotation Xrotation Yrotation
                                        End Site
                                        {
                                            OFFSET  -1.818440   0.000000   0.000000
                                        }
                                    }
                                }
                            }
                        }
                    }
                }
            }
        }
    }
    JOINT LeftHip
    {
        OFFSET   9.783010   0.000000   0.000000
        CHANNELS 3 Zrotation Xrotation Yrotation
        JOINT LeftKnee
        {
            OFFSET   0.000070 -41.789100   0.000028
            CHANNELS 3 Zrotation Xrotation Yrotation
            JOINT LeftAnkle
            {
                OFFSET   0.000087 -41.133200  -0.000100
                CHANNELS 3 Zrotation Xrotation Yrotation
                JOINT LeftToe
                {
                    OFFSET   0.000000  -6.358960  14.674500
                    CHANNELS 3 Zrotation Xrotation Yrotation
                    End Site
                    {
                        OFFSET   0.000000   0.000000   3.913200
                    }
                }
            }
        }
    }
    JOINT RightHip
    {
        OFFSET  -9.783020   0.000000   0.000000
        CHANNELS 3 Zrotation Xrotation Yrotation
        JOINT RightKnee
        {
            OFFSET   0.000044 -41.789100  -0.000870
            CHANNELS 3 Zrotation Xrotation Yrotation
            JOINT RightAnkle
            {
                OFFSET  -0.000090 -41.133200  -0.000245
                CHANNELS 3 Zrotation Xrotation Yrotation
                JOINT RightToe
                {
                    OFFSET   0.000000  -6.358960  14.674500
                    CHANNELS 3 Zrotation Xrotation Yrotation
                    End Site
                    {
                        OFFSET   0.000000   0.000000   3.913200
                    }
                }
            }
        }
    }
}
MOTION
Frames: 5
Frame Time:   0.016667
 -0.419796  90.248800  -0.775766  -3.977940 -13.474500  -4.092700   1.221150   8.766710  -1.043620   2.653300  17.507200  -2.320080   3.885230   0.401129  -0.027235   6.379540   0.801884  13.364300  -6.231190  -3.897810   6.175080 -62.886800  18.863700 -40.598600  20.007700  -3.416320 -70.196200  18.140400  18.362800   5.734060  53.316500  32.300700 -58.882900  -8.529390  -0.002501  -0.000314   0.735302  -0.001818  -0.012398  -2.209470   0.225574  -5.443750  -1.806190   0.044630  -0.011871  -1.264330   0.031577  -0.003375 -20.316000   1.811090  -5.112240 -20.383400  -0.014916  -0.000128 -13.575300  -0.008753  -0.000194 -13.113600   1.224690  -5.301910 -13.158200   0.035288   0.006947  -8.763330   0.022753  -0.000000 -17.307100   0.958475  -3.063590 -25.979300   0.061426   0.022191 -17.302200   0.033842   0.027311  10.992300   0.016714  15.342500  56.471500   6.015590  39.776700 -24.378400  -9.162710  63.908800 -50.855300  39.804100  26.226700 -41.976400  24.270500  60.289200  16.721600   0.008019  -0.002362   3.360810   0.004854   0.070475  11.531900  -0.522488  -2.461400   9.452630  -0.012298   0.003163   6.616830  -0.002304   0.002667   9.135880  -1.910000 -11.113900   9.336560  -0.029207   0.008453   6.218160  -0.018807  -0.002212   9.363350  -2.316490 -13.527800   9.642520  -0.026771  -0.011306   6.421930  -0.017530   0.002044  17.711400  -7.766240 -22.784000  28.928500  -0.038224   0.007151  19.266400  -0.022684   0.012511   3.159430  15.190300   2.137090   0.358230   1.555540  12.713000  -5.628260  -4.754550   4.677470  -0.000000   0.000000  -0.000000   3.378780  12.943600 -10.780600  -0.867963   3.571440  -7.635110  -9.406090   0.928990   1.771280  -0.000000   0.000000   0.000000
 -0.422105  90.248500  -0.769910  -3.973190 -13.473300  -4.072770   1.226750   8.792410  -1.025010   2.662220  17.558900  -2.283840   3.951450   0.193193  -0.013361   6.487760   0.386020  13.443000  -6.276910  -3.870480   6.139270 -63.022700  18.992300 -40.273200  20.147000  -2.935160 -69.386300  15.482800  18.604800   6.985840  52.642400  31.250400 -56.468300  -8.139180  -0.002168  -0.000248   0.930412  -0.001878  -0.014228  -3.223330   0.242595  -4.897230  -2.637210   0.039731  -0.007627  -1.846050   0.028000  -0.002859 -20.127800   1.627640  -4.607180 -20.176800  -0.014915  -0.000005 -13.437700  -0.006640  -0.000108 -13.857500   1.131740  -4.766000 -13.894900   0.029264   0.007685  -9.254000   0.018523  -0.000124 -18.253900   0.901487  -2.837110 -27.396200   0.054350   0.028726 -18.245900   0.027985   0.028525  11.048500   0.023346  15.330800  56.315700   6.148230  39.542900 -24.253800  -9.096220  62.921500 -42.182200  40.930200  18.857200 -41.624100  23.339300  59.041200  15.708100  -0.001219   0.000155   2.854050   0.005038   0.078508  12.383500  -0.658738  -2.774090  10.150600  -0.010197   0.013319   7.105380  -0.002218   0.009890   8.736720  -1.877630 -11.380400   8.941930  -0.029385   0.007901   5.955340  -0.019031  -0.002237   8.114900  -2.034560 -13.739600   8.365480  -0.023364  -0.011262   5.571400  -0.015424   0.002047  17.379000  -7.706510 -23.085100  28.436200  -0.037587   0.011061  18.938600  -0.022076   0.014738   3.163270  15.206900   2.119600   0.353512   1.544900  12.718000  -5.627110  -4.762730   4.671010  -0.000000   0.000000   0.000000   3.384700  12.952000 -10.809300  -0.865868   3.574210  -7.591040  -9.405240   0.920138   1.732690  -0.000000   0.000000   0.000000
 -0.423660  90.247200  -0.764422  -3.965950 -13.470000  -4.042830   1.229740   8.823750  -1.008200   2.666860  17.621900  -2.251220   4.019200  -0.018838   0.001238   6.599700  -0.037682  13.511300  -6.326190  -3.850930   6.111880 -63.069900  19.151400 -40.000700  20.203300  -2.579450 -68.610900  12.462200  18.869400   8.302900  52.219500  30.269100 -53.913300  -7.264910  -0.001830  -0.000170   1.367550  -0.001941  -0.014534  -4.710440   0.270530  -4.029300  -3.856530   0.028345  -0.000931  -2.699580   0.019826  -0.002306 -19.756200   1.335860  -3.805060 -19.784800  -0.014906   0.000255 -13.176700  -0.003445   0.000081 -14.609700   0.973853  -3.917650 -14.631600   0.017726   0.008067  -9.744660   0.010717  -0.000273 -19.206700   0.775101  -2.371800 -28.813100   0.038094   0.032352 -19.189500   0.016973   0.028698  11.082800   0.036348  15.327000  56.085200   6.274610  39.326100 -24.222200  -9.282170  62.126700 -32.545200  41.246100  10.954800 -42.156600  23.003800  57.658200  13.780300  -0.007855   0.001955   1.890140   0.005227   0.079656  12.839900  -0.794747  -3.281920  10.527400  -0.006542   0.020400   7.369160  -0.002134   0.014850   8.133570  -1.831780 -11.964800   8.344230  -0.029411   0.006230   5.557270  -0.019063  -0.002251   6.733560  -1.701070 -13.975300   6.944760  -0.016053  -0.011108   4.625200  -0.010783   0.002048  16.739300  -7.573040 -23.558700  27.480900  -0.033126   0.012958  18.302300  -0.018357   0.015056   3.168150  15.224100   2.096470   0.350966   1.526090  12.724100  -5.627160  -4.766520   4.657220   0.000000   0.000000   0.000000   3.386210  12.961000 -10.845900  -0.862380   3.577060  -7.536590  -9.404240   0.912905   1.683380   0.000000   0.000000  -0.000000
 -0.425416  90.241100  -0.754286  -3.955790 -13.464700  -4.001240   1.228880   8.853410  -0.997134   2.664730  17.681400  -2.229880   4.084820  -0.223701   0.015900   6.709470  -0.446793  13.583200  -6.371360  -3.816480   6.106420 -63.031400  19.335700 -39.811200  20.158900  -2.412340 -67.904400   9.330600  19.112900   9.603850  52.073800  29.545700 -51.687000  -5.954850  -0.001476  -0.000129   2.022580  -0.002018  -0.010848  -5.587650   0.297100  -3.395590  -4.578690   0.007298   0.004627  -3.205090   0.005015  -0.001721 -19.320500   1.122940  -3.220040 -19.346200  -0.009227   0.000518 -12.884500  -0.001229   0.000277 -14.442700   0.832095  -3.305910 -14.459400   0.001699   0.004069  -9.629960   0.000642  -0.000624 -19.124900   0.554498  -1.642970 -28.687900   0.008453   0.015436 -19.106100   0.002207   0.012608  11.073400   0.102304  15.331000  55.841000   6.373390  39.163200 -23.973700  -9.915160  61.679600 -23.715600  39.929900   3.980470 -43.726500  23.864200  56.303900  11.048200  -0.002199   0.001500   0.524080   0.005415   0.051986  11.940800  -0.789538  -3.749750   9.788820  -0.002545   0.019268   6.852160  -0.002053   0.013767   7.786970  -1.816740 -12.970100   7.995750  -0.014991   0.003758   5.325170  -0.009725  -0.001511   6.590800  -1.644760 -14.002900   6.792420  -0.003840  -0.007715   4.523760  -0.002748   0.002040  16.070700  -7.361300 -23.949300  26.436700  -0.015848   0.009694  17.606800  -0.006629   0.009801   3.174050  15.241000   2.069090   0.351111   1.503940  12.725400  -5.630760  -4.766510   4.640690   0.000000   0.000000   0.000000   3.381380  12.973500 -10.887300  -0.855346   3.571980  -7.472090  -9.397250   0.910387   1.620710   0.000000   0.000000   0.000000
 -0.427239  90.230800  -0.740939  -3.942590 -13.458900  -3.948080   1.228250   8.881900  -0.989544   2.662590  17.738600  -2.214930   4.152310  -0.419367   0.030403   6.822720  -0.837109  13.650600  -6.410560  -3.772930   6.100900 -63.008800  19.471000 -39.639200  20.064700  -2.300530 -67.293100   6.376310  19.369100  10.609300  52.034500  29.001800 -49.901600  -4.656970  -0.001125  -0.000000   2.671520  -0.002100  -0.004152  -5.993130   0.312823  -2.872480  -4.912560  -0.007263   0.007735  -3.438800  -0.005199  -0.001106 -18.873800   0.947545  -2.734600 -18.901000   0.000226   0.001533 -12.588000  -0.000095   0.001031 -14.136900   0.707108  -2.802040 -14.158300  -0.008815   0.000072  -9.429450  -0.005857  -0.000867 -18.932300   0.403178  -1.153010 -28.415100  -0.012008  -0.001480 -18.924500  -0.007404  -0.003483  11.049200   0.195148  15.335100  55.632600   6.451910  39.001000 -23.505200 -10.813400  61.484800 -16.312800  37.895900  -1.616290 -45.265300  24.924000  55.691500   8.251420   0.005980  -0.000763  -0.874285   0.005607   0.013616  10.660100  -0.755621  -4.022440   8.734970   0.000135   0.013869   6.114480  -0.001972   0.009609   7.501790  -1.801230 -13.657400   7.711920   0.005921  -0.000505   5.136140   0.003821  -0.000771   6.553680  -1.631720 -14.006800   6.753200   0.004467  -0.004469   4.497630   0.002751   0.001983  15.323600  -7.020530 -24.155900  25.223800   0.003112   0.001827  16.799000   0.002202   0.000518   3.179280  15.250500   2.040250   0.352404   1.482820  12.725500  -5.637340  -4.765780   4.619130  -0.000000   0.000000   0.000000   3.371430  12.987700 -10.931900  -0.845525   3.562980  -7.407190  -9.386410   0.909439   1.551040  -0.000000   0.000000   0.000000
